<mxfile host="Electron" modified="2024-01-24T10:30:35.345Z" agent="Mozilla/5.0 (Windows NT 10.0; Win64; x64) AppleWebKit/537.36 (KHTML, like Gecko) draw.io/22.0.3 Chrome/114.0.5735.289 Electron/25.8.4 Safari/537.36" etag="_QvUf0ti8Q1b2-IZC8AU" version="22.0.3" type="device">
  <diagram name="Page-1" id="58UoJY59tzsanSXBA_rc">
    <mxGraphModel dx="1127" dy="820" grid="1" gridSize="10" guides="1" tooltips="1" connect="1" arrows="1" fold="1" page="1" pageScale="1" pageWidth="291" pageHeight="413" math="0" shadow="0">
      <root>
        <mxCell id="0" />
        <mxCell id="1" parent="0" />
        <mxCell id="1Shzr8uBK2wNw13K3PxH-9" value="K8s&amp;nbsp;&amp;nbsp;" style="rounded=0;whiteSpace=wrap;html=1;align=right;" vertex="1" parent="1">
          <mxGeometry x="600" y="140" width="90" height="60" as="geometry" />
        </mxCell>
        <mxCell id="1Shzr8uBK2wNw13K3PxH-1" value="HARDWARE" style="rounded=0;whiteSpace=wrap;html=1;" vertex="1" parent="1">
          <mxGeometry x="500" y="260" width="190" height="60" as="geometry" />
        </mxCell>
        <mxCell id="1Shzr8uBK2wNw13K3PxH-2" value="CLUSTER MANAGER&lt;br&gt;(WW, xCAT)" style="rounded=0;whiteSpace=wrap;html=1;" vertex="1" parent="1">
          <mxGeometry x="500" y="200" width="190" height="60" as="geometry" />
        </mxCell>
        <mxCell id="1Shzr8uBK2wNw13K3PxH-3" value="Determinar configuracion del cluster manager" style="ellipse;shape=cloud;whiteSpace=wrap;html=1;" vertex="1" parent="1">
          <mxGeometry x="750" y="196" width="270" height="80" as="geometry" />
        </mxCell>
        <mxCell id="1Shzr8uBK2wNw13K3PxH-4" value="SLURM" style="rounded=0;whiteSpace=wrap;html=1;" vertex="1" parent="1">
          <mxGeometry x="500" y="140" width="100" height="60" as="geometry" />
        </mxCell>
        <mxCell id="1Shzr8uBK2wNw13K3PxH-5" value="OOD" style="rounded=0;whiteSpace=wrap;html=1;" vertex="1" parent="1">
          <mxGeometry x="500" y="80" width="100" height="60" as="geometry" />
        </mxCell>
        <mxCell id="1Shzr8uBK2wNw13K3PxH-8" value="VMs" style="rounded=0;whiteSpace=wrap;html=1;" vertex="1" parent="1">
          <mxGeometry x="600" y="170" width="50" height="30" as="geometry" />
        </mxCell>
        <mxCell id="1Shzr8uBK2wNw13K3PxH-10" value="Portal contenedores / K8s" style="rounded=0;whiteSpace=wrap;html=1;" vertex="1" parent="1">
          <mxGeometry x="600" y="80" width="90" height="60" as="geometry" />
        </mxCell>
        <mxCell id="1Shzr8uBK2wNw13K3PxH-11" value="1-Identificar el portal (Portainer, Rancher, ...)&lt;br&gt;2- Funcionalidades para el usuario&lt;br&gt;3-Funcionalidades para el administrador" style="ellipse;shape=cloud;whiteSpace=wrap;html=1;align=center;" vertex="1" parent="1">
          <mxGeometry x="745" y="50" width="300" height="110" as="geometry" />
        </mxCell>
        <mxCell id="1Shzr8uBK2wNw13K3PxH-13" value="Interoperabilidad entre Slurm y K8s" style="ellipse;shape=cloud;whiteSpace=wrap;html=1;" vertex="1" parent="1">
          <mxGeometry x="760" y="134" width="270" height="80" as="geometry" />
        </mxCell>
        <mxCell id="1Shzr8uBK2wNw13K3PxH-12" value="interop." style="shape=flexArrow;endArrow=classic;startArrow=classic;html=1;rounded=0;labelBackgroundColor=#FFFFFF;fillColor=default;width=18;startSize=3.33;" edge="1" parent="1">
          <mxGeometry width="100" height="100" relative="1" as="geometry">
            <mxPoint x="560" y="154" as="sourcePoint" />
            <mxPoint x="640" y="154" as="targetPoint" />
          </mxGeometry>
        </mxCell>
      </root>
    </mxGraphModel>
  </diagram>
</mxfile>
